HIERARCHY
ROOT Hips
{
 OFFSET 0.000000 0.000000 0.000000
 CHANNELS 6 Xposition Yposition Zposition Yrotation Xrotation Zrotation
 JOINT Chest
 {
  OFFSET 0.000000 9.588913 -0.003946
  CHANNELS 3 Yrotation Xrotation Zrotation
  JOINT Chest2
  {
   OFFSET 0.000000 9.541882 0.008053
   CHANNELS 3 Yrotation Xrotation Zrotation
   JOINT Chest3
   {
    OFFSET 0.000000 9.501360 0.000000
    CHANNELS 3 Yrotation Xrotation Zrotation
    JOINT Chest4
    {
     OFFSET 0.000000 9.491660 0.000000
     CHANNELS 3 Yrotation Xrotation Zrotation
     JOINT Neck
     {
      OFFSET 0.000000 14.331917 0.000000
      CHANNELS 3 Yrotation Xrotation Zrotation
      JOINT Head
      {
       OFFSET 0.000000 8.884799 0.017034
       CHANNELS 3 Yrotation Xrotation Zrotation
       End Site
       {
        OFFSET 0.000000 16.896195 0.008993
       }
      }
     }
     JOINT RightCollar
     {
      OFFSET -2.923010 9.499495 0.000000
      CHANNELS 3 Yrotation Xrotation Zrotation
      JOINT RightShoulder
      {
       OFFSET -13.795216 0.000000 0.000000
       CHANNELS 3 Yrotation Xrotation Zrotation
       JOINT RightElbow
       {
        OFFSET -30.272209 0.000000 0.000000
        CHANNELS 3 Yrotation Xrotation Zrotation
        JOINT RightWrist
        {
         OFFSET -24.478199 0.000000 0.000000
         CHANNELS 3 Yrotation Xrotation Zrotation
         End Site
         {
          OFFSET -18.090752 0.000000 0.000000
         }
        }
       }
      }
     }
     JOINT LeftCollar
     {
      OFFSET 2.923010 9.499495 0.000000
      CHANNELS 3 Yrotation Xrotation Zrotation
      JOINT LeftShoulder
      {
       OFFSET 13.795216 0.000000 0.000000
       CHANNELS 3 Yrotation Xrotation Zrotation
       JOINT LeftElbow
       {
        OFFSET 30.272209 0.000000 0.000000
        CHANNELS 3 Yrotation Xrotation Zrotation
        JOINT LeftWrist
        {
         OFFSET 24.478199 0.000000 0.000000
         CHANNELS 3 Yrotation Xrotation Zrotation
         End Site
         {
          OFFSET 18.090752 0.000000 0.000000
         }
        }
       }
      }
     }
    }
   }
  }
 }
 JOINT RightHip
 {
  OFFSET -7.826875 0.019532 0.001973
  CHANNELS 3 Yrotation Xrotation Zrotation
  JOINT RightKnee
  {
   OFFSET 0.000000 -40.546152 -0.001885
   CHANNELS 3 Yrotation Xrotation Zrotation
   JOINT RightAnkle
   {
    OFFSET 0.000000 -39.417092 -0.003189
    CHANNELS 3 Yrotation Xrotation Zrotation
    JOINT RightToe
    {
     OFFSET 0.000000 -7.579396 17.243563
     CHANNELS 3 Yrotation Xrotation Zrotation
     End Site
     {
      OFFSET 0.000000 -1.500329 6.694466
     }
    }
   }
  }
 }
 JOINT LeftHip
 {
  OFFSET 7.826875 0.019532 0.001973
  CHANNELS 3 Yrotation Xrotation Zrotation
  JOINT LeftKnee
  {
   OFFSET 0.000000 -40.546152 -0.001885
   CHANNELS 3 Yrotation Xrotation Zrotation
   JOINT LeftAnkle
   {
    OFFSET 0.000000 -39.417092 -0.003189
    CHANNELS 3 Yrotation Xrotation Zrotation
    JOINT LeftToe
    {
     OFFSET 0.000000 -7.579396 17.243563
     CHANNELS 3 Yrotation Xrotation Zrotation
     End Site
     {
      OFFSET 0.000000 -1.500329 6.694466
     }
    }
   }
  }
 }
}
MOTION
Frames: 11
Frame Time: 0.008333
1.949817 88.006181 -24.331124 30.365505 -5.350094 1.475437 2.298936 3.780713 2.902119 1.303150 2.118679 1.245678 1.636397 2.643840 1.564875 1.303152 2.118681 1.245679 4.378355 28.985904 -5.464300 6.146163 6.931077 -7.118677 -2.224946 0.034290 -4.001807 -8.049053 -5.728369 84.699709 4.074976 -2.616249 1.503185 2.177228 -3.712629 -4.408176 0.470743 0.859125 -5.170963 6.989671 -1.423413 -89.946089 0.056438 -7.812655 -2.256996 -12.046292 -3.086988 12.089726 -16.621816 11.121714 -5.211648 -6.464217 -0.582988 0.171337 -3.032936 -6.392833 0.953264 -0.050992 0.969201 0.014064 3.589062 1.571466 8.921103 -0.677197 14.397164 4.017961 3.711409 -8.365449 -12.075952 -0.165490 -0.654615 0.105016
2.024088 88.012313 -24.324586 30.538832 -5.322398 1.523655 2.324914 3.753839 2.856218 1.323691 2.109415 1.230493 1.661956 2.632245 1.545973 1.323693 2.109417 1.230494 4.591609 28.934193 -5.428524 6.379060 6.879040 -7.128831 -2.202506 -0.009532 -3.941583 -8.131363 -5.862403 84.615987 4.219126 -2.699916 1.547561 2.239566 -3.738392 -4.443713 0.496360 0.852909 -5.144716 7.315834 -1.602070 -89.923929 0.271256 -7.588158 -2.207717 -11.996107 -3.108109 12.051799 -16.722510 11.113306 -5.296731 -6.490294 -0.581715 0.150310 -3.089494 -6.406514 1.018318 -0.051926 0.962454 0.012452 3.568462 1.666769 8.862715 -0.777942 14.134966 3.934322 3.682794 -8.299152 -12.018499 -0.182018 -0.648391 0.097660
2.098661 88.019185 -24.317878 30.714741 -5.294302 1.568759 2.348387 3.725286 2.809739 1.344983 2.101833 1.217360 1.688472 2.622744 1.529646 1.344984 2.101835 1.217361 4.796932 28.880163 -5.392541 6.603099 6.823713 -7.136874 -2.180562 -0.061492 -3.890683 -8.203282 -5.980731 84.552662 4.356029 -2.796471 1.587603 2.314559 -3.767922 -4.485683 0.505908 0.823016 -5.123815 7.461058 -1.778493 -89.851673 0.513058 -7.336977 -2.143347 -11.954060 -3.144414 11.984252 -16.815225 11.108154 -5.376845 -6.522743 -0.584163 0.130718 -3.152349 -6.414755 1.083582 -0.052343 0.952267 0.010200 3.564068 1.752276 8.804801 -0.884774 13.882342 3.857572 3.646676 -8.229746 -11.960592 -0.200938 -0.646623 0.088675
2.173278 88.026556 -24.311331 30.890888 -5.266623 1.606828 2.372037 3.698270 2.766257 1.366429 2.095322 1.206883 1.715201 2.614572 1.516644 1.366430 2.095324 1.206884 4.994063 28.824020 -5.357697 6.818285 6.765421 -7.144275 -2.159260 -0.122088 -3.850758 -8.262514 -6.082876 84.509560 4.485657 -2.899780 1.621790 2.399559 -3.803387 -4.531155 0.494529 0.768457 -5.113086 7.420745 -1.936765 -89.735355 0.754752 -7.071104 -2.054884 -11.909968 -3.172046 11.890442 -16.901460 11.106548 -5.449764 -6.562766 -0.588420 0.113088 -3.212929 -6.417832 1.148507 -0.052209 0.938043 0.007766 3.576430 1.828120 8.753822 -0.987781 13.641457 3.787683 3.589663 -8.161658 -11.902724 -0.217995 -0.647011 0.079081
2.248190 88.034098 -24.305817 31.066834 -5.237381 1.639554 2.397145 3.673750 2.726811 1.386737 2.088256 1.197623 1.740512 2.605708 1.505155 1.386738 2.088258 1.197624 5.183221 28.767894 -5.324886 7.025094 6.707035 -7.152135 -2.137895 -0.189319 -3.816959 -8.307486 -6.169222 84.480700 4.609983 -3.005027 1.651003 2.486711 -3.840716 -4.575036 0.461417 0.693766 -5.112380 7.211029 -2.066748 -89.585072 0.971076 -6.792324 -1.938382 -11.856730 -3.167800 11.786322 -16.983064 11.106249 -5.518026 -6.608641 -0.595551 0.096245 -3.264320 -6.416893 1.213838 -0.051001 0.921316 0.005969 3.603624 1.892403 8.707424 -1.081381 13.413333 3.727504 3.504689 -8.096940 -11.847688 -0.231757 -0.648637 0.070520
2.323897 88.041485 -24.302271 31.247574 -5.203933 1.671270 2.420534 3.650749 2.690565 1.403992 2.079873 1.187530 1.761998 2.595211 1.492599 1.403994 2.079875 1.187530 5.364399 28.713500 -5.294181 7.223544 6.650769 -7.160554 -2.116204 -0.260869 -3.785920 -8.334821 -6.242583 84.463163 4.729188 -3.107438 1.677928 2.571021 -3.875559 -4.615283 0.412536 0.603607 -5.117089 6.861693 -2.165531 -89.415331 1.146127 -6.490847 -1.793765 -11.789321 -3.110606 11.687695 -17.062259 11.102395 -5.583878 -6.657230 -0.603395 0.079366 -3.319168 -6.415798 1.279106 -0.049039 0.904811 0.005404 3.632955 1.944196 8.659325 -1.164945 13.196383 3.676439 3.398640 -8.034575 -11.797691 -0.241217 -0.650961 0.064803
2.400755 88.048532 -24.300122 31.436717 -5.170209 1.702595 2.439693 3.630979 2.656914 1.416907 2.070832 1.176332 1.778049 2.583910 1.478636 1.416909 2.070833 1.176333 5.538034 28.661308 -5.264395 7.413835 6.597114 -7.168284 -2.093257 -0.333622 -3.757657 -8.342922 -6.308127 84.454135 4.840448 -3.203469 1.707965 2.651574 -3.907224 -4.652904 0.354507 0.500496 -5.125243 6.415218 -2.236228 -89.236816 1.274816 -6.143705 -1.622993 -11.702459 -2.992694 11.598145 -17.140436 11.097935 -5.647541 -6.706477 -0.609407 0.062646 -3.390646 -6.416898 1.343180 -0.047458 0.889286 0.006139 3.653346 1.989695 8.608166 -1.242505 12.989452 3.631245 3.285323 -7.974875 -11.750672 -0.246212 -0.652678 0.060501
2.478755 88.055159 -24.298142 31.635815 -5.142147 1.731592 2.453570 3.616013 2.626864 1.424813 2.062096 1.164956 1.787839 2.573009 1.464422 1.424815 2.062096 1.164956 5.704817 28.611625 -5.234940 7.596599 6.546436 -7.174813 -2.067981 -0.403452 -3.734129 -8.335154 -6.369478 84.452700 4.943343 -3.290756 1.743352 2.724885 -3.933113 -4.686975 0.293069 0.387538 -5.139513 5.914850 -2.285069 -89.053303 1.359908 -5.730115 -1.432245 -11.598783 -2.817903 11.513090 -17.221056 11.099406 -5.707778 -6.757883 -0.613193 0.042588 -3.474418 -6.419963 1.407734 -0.046820 0.873954 0.008065 3.660836 2.037231 8.556658 -1.319357 12.789911 3.589271 3.173231 -7.918533 -11.704301 -0.245960 -0.652191 0.056054
2.557565 88.061323 -24.295891 31.842938 -5.120797 1.758249 2.461576 3.604815 2.600191 1.428363 2.054833 1.154049 1.792191 2.563963 1.450776 1.428364 2.054834 1.154050 5.864751 28.562675 -5.207226 7.772142 6.496504 -7.181721 -2.040419 -0.470368 -3.713750 -8.315178 -6.428415 84.457669 5.038455 -3.364091 1.783179 2.788142 -3.950110 -4.717000 0.232489 0.269509 -5.161456 5.398273 -2.323152 -88.867199 1.412420 -5.240449 -1.231152 -11.492334 -2.600923 11.426821 -17.305436 11.107631 -5.765612 -6.813951 -0.614348 0.016605 -3.555971 -6.425164 1.474030 -0.046649 0.858742 0.011545 3.656786 2.089694 8.506492 -1.400246 12.594890 3.546902 3.067560 -7.864899 -11.656277 -0.241530 -0.649109 0.050901
2.636471 88.067000 -24.293540 32.056463 -5.103307 1.782893 2.462603 3.594750 2.575297 1.428395 2.049219 1.144142 1.792156 2.556985 1.438367 1.428396 2.049219 1.144142 6.017710 28.511395 -5.183348 7.940765 6.443451 -7.191322 -2.011697 -0.536096 -3.691522 -8.283734 -6.486185 84.462444 5.123284 -3.416153 1.830375 2.840926 -3.959541 -4.743049 0.175081 0.153402 -5.190005 4.898562 -2.363479 -88.680608 1.443387 -4.674244 -1.034824 -11.391222 -2.361882 11.340365 -17.393575 11.119802 -5.822251 -6.873801 -0.613326 -0.011912 -3.632500 -6.432394 1.540739 -0.046345 0.843859 0.015698 3.640871 2.144173 8.457656 -1.485424 12.404279 3.503735 2.969660 -7.812912 -11.606310 -0.234742 -0.644162 0.044957
2.714973 88.072237 -24.290950 32.274918 -5.089318 1.805880 2.457006 3.584683 2.552400 1.425621 2.044502 1.134835 1.788620 2.551134 1.426696 1.425621 2.044502 1.134834 6.164527 28.456767 -5.163985 8.103559 6.386076 -7.204581 -1.985426 -0.598589 -3.666001 -8.237516 -6.541820 84.466739 5.198793 -3.448258 1.882688 2.881557 -3.964607 -4.760313 0.122384 0.045297 -5.222134 4.434353 -2.410168 -88.495332 1.459332 -4.046742 -0.857660 -11.296852 -2.111591 11.254912 -17.482230 11.134652 -5.876429 -6.937524 -0.608512 -0.042263 -3.710550 -6.442314 1.607163 -0.046069 0.829633 0.019867 3.612466 2.200147 8.408907 -1.568774 12.218680 3.464935 2.872630 -7.761847 -11.558657 -0.224883 -0.638808 0.039760
